{"accessors":[{"bufferView":3,"componentType":5126,"count":3330,"max":[77.34846496582031,171.81407165527344,11.398781776428223],"min":[-77.34846496582031,-0.2309856414794922,-13.945270538330078],"type":"VEC3"},{"bufferView":3,"byteOffset":39960,"componentType":5126,"count":3330,"max":[0.9998700022697449,0.9996820092201233,0.9998220205307007],"min":[-0.9998700022697449,-1,-0.9999130964279175],"type":"VEC3"},{"bufferView":2,"componentType":5126,"count":3330,"max":[0.6194444298744202,0.9888888597488403],"min":[0.05833333358168602,0.23055553436279297],"type":"VEC2"},{"bufferView":1,"componentType":5125,"count":4866,"type":"SCALAR"},{"bufferView":5,"componentType":5126,"count":38,"max":[1,0.5332311987876892,1,0,1,1,0.997283399105072,0,0.9892087578773499,1,1,0,92.71293640136719,148.8451690673828,150.52035522460938,1],"min":[-0.9972066879272461,-0.5332319140434265,-0.9973156452178955,0,-1,-0.9613275527954102,-0.997283399105072,0,-0.216013565659523,-0.9945449829101562,-0.9573149085044861,0,-149.69049072265625,-25.458621978759766,-150.52037048339844,1],"type":"MAT4"},{"bufferView":0,"componentType":5123,"count":3330,"type":"VEC4"},{"bufferView":4,"componentType":5126,"count":3330,"max":[1,0.5,0.3156791925430298,0.16191692650318146],"min":[0.3421604335308075,0,0,0],"type":"VEC4"}],"asset":{"extras":{"author":"Denys Almaral (https://sketchfab.com/denysalmaral)","license":"SKETCHFAB Standard (https://sketchfab.com/licenses)","source":"https://sketchfab.com/3d-models/casual-lowpoly-female-rig-t-pose-6b068fb93d054224bd95acb9745d233d","title":"Casual LowPoly Female Rig T-pose"},"generator":"Sketchfab-15.49.0","version":"2.0"},"bufferViews":[{"buffer":0,"byteLength":26640,"byteStride":8,"name":"shortBufferViews","target":34962},{"buffer":0,"byteLength":19464,"byteOffset":26640,"name":"floatBufferViews","target":34963},{"buffer":0,"byteLength":26640,"byteOffset":46104,"byteStride":8,"name":"floatBufferViews","target":34962},{"buffer":0,"byteLength":79920,"byteOffset":72744,"byteStride":12,"name":"floatBufferViews","target":34962},{"buffer":0,"byteLength":53280,"byteOffset":152664,"byteStride":16,"name":"floatBufferViews","target":34962},{"buffer":0,"byteLength":2432,"byteOffset":205944,"name":"floatBufferViews"}],"buffers":[{"byteLength":208376,"uri":"data:application/octet-stream;base64,"}],"images":[{"uri":"data:application/octet-stream;base64,"}],"materials":[{"doubleSided":true,"name":"peopleColors","pbrMetallicRoughness":{"baseColorTexture":{"index":0},"metallicFactor":0,"roughnessFactor":0.8749073766893973}}],"meshes":[{"name":"lpFemale_casual_G_peopleColors_0","primitives":[{"attributes":{"JOINTS_0":5,"NORMAL":1,"POSITION":0,"TEXCOORD_0":2,"WEIGHTS_0":6},"indices":3,"material":0,"mode":4}]}],"nodes":[{"children":[1],"matrix":[1,0,0,0,0,2.220446049250313e-16,-1,0,0,1,2.220446049250313e-16,0,0,0,0,1],"name":"Sketchfab_model"},{"children":[2],"matrix":[0.009999999776482582,0,0,0,0,0,0.009999999776482582,0,0,-0.009999999776482582,0,0,0,0,0,1],"name":"d586f6c1963c49c68e3bc0ee00aec68b.fbx"},{"children":[3],"name":"RootNode"},{"children":[4],"matrix":[1,0,0,0,0,2.220446049250313e-16,-1,0,0,1,2.220446049250313e-16,0,0,0,0,1],"name":"rig_CharRoot"},{"children":[5,7,6],"name":"Object_4"},{"children":[8],"name":"_rootJoint"},{"matrix":[1,0,0,0,0,6.123233995736765e-17,-0.9999999999999999,0,0,1,6.123233995736766e-17,0,-1.7763568394002505e-15,5,2.6645352591003757e-15,1],"name":"Object_6"},{"mesh":0,"name":"Object_7","skin":0},{"children":[9,45],"name":"bip_01","rotation":[0,0,-0.7071062922477722,0.7071072459220886],"translation":[-0.0000016031675613703555,1.6674071550369263,93.859375]},{"children":[10,35,40],"name":"bip Pelvis_02","rotation":[-0.5,-0.5,-0.4999993145465851,0.5000007152557373],"translation":[0.0009576082229614258,0.0000016018547057683463,0]},{"children":[11],"name":"bip Spine_03","rotation":[-0.000002138061290679616,-7.931938057481602e-7,0.09280011802911758,0.9956848621368408],"translation":[3.5812301635742188,-0.29653334617614746,0.0000018845166778191924]},{"children":[12,15,25],"name":"bip Spine1_04","rotation":[-3.3162066870318085e-8,7.455180366378045e-7,-0.20043188333511353,0.979707658290863],"translation":[16.152297973632812,-0.018178939819335938,-4.7628418542444706e-8]},{"children":[13],"name":"bip Neck_05","rotation":[-6.012044703219976e-14,-7.796438694640528e-7,0.2810945510864258,0.9596800804138184],"translation":[30.668052673339844,1.5958080291748047,0.000003721041139215231]},{"children":[14],"name":"bip Head_06","rotation":[0.0013058834010735154,-0.000207198056159541,-0.17417392134666443,0.9847140312194824],"translation":[6.4856719970703125,7.105427357601002e-15,-5.421010862427522e-20]},{"name":"bip HeadNub_07","rotation":[-4.9141128666274625e-11,5.297263431099239e-21,-1.1641530794914701e-10,1],"translation":[21.363250732421875,-2.384185791015625e-7,1.734723475976807e-18]},{"children":[16],"name":"bip L Clavicle_08","rotation":[0.7527666091918945,-0.0003006396582350135,0.658287525177002,0.00026106825680471957],"translation":[24.423072814941406,-0.0399627685546875,4.45879602432251]},{"children":[17],"name":"bip L UpperArm_09","rotation":[0.14746379852294922,0.05833017826080322,0.026771079748868942,0.9869829416275024],"translation":[13.368806838989258,3.552713678800501e-15,-0.0000152587890625]},{"children":[18],"name":"bip L Forearm_010","rotation":[6.992756596674231e-18,4.3915348300215553e-20,-0.11780080199241638,0.9930373430252075],"translation":[23.304100036621094,1.7763568394002505e-15,0]},{"children":[19,22],"name":"bip L Hand_011","rotation":[-0.6930474042892456,0.13571664690971375,0.041587572544813156,0.7067792415618896],"translation":[22.85134506225586,0.000003814697265625,-2.842170943040401e-14]},{"children":[20],"name":"bip L Finger0_012","rotation":[0.6159675717353821,0.17461228370666504,0.0009290421148762107,0.7681755423545837],"translation":[3.5791397094726562,1.31585693359375,-3.5134124755859375]},{"children":[21],"name":"bip L Finger01_013","rotation":[2.4037313806068994e-10,-1.489922318853587e-8,0.016131168231368065,0.9998698830604553],"translation":[4.194072723388672,-3.9968028886505635e-15,0]},{"name":"bip L Finger0Nub_014","rotation":[-1.5959452008519685e-16,-1.4901159417490817e-8,-1.1175869119028903e-8,1],"translation":[4.194072723388672,-0.000003814697265625,0.0000152587890625]},{"children":[23],"name":"bip L Finger1_015","rotation":[0.028764501214027405,-0.032915472984313965,0.061544012278318405,0.9971466660499573],"translation":[7.9718170166015625,-0.2516326904296875,0.4154777526855469]},{"children":[24],"name":"bip L Finger11_016","rotation":[-4.3454800868758525e-10,3.6998590857706404e-9,0.1166481003165245,0.9931733012199402],"translation":[3.6403541564941406,0.0000152587890625,-7.105427357601002e-15]},{"name":"bip L Finger1Nub_017","rotation":[2.7755575615628914e-17,3.725290298461914e-9,-1.4901161193847656e-8,1],"translation":[3.6403465270996094,0,-7.105427357601002e-15]},{"children":[26],"name":"bip R Clavicle_018","rotation":[0.7527666091918945,-0.0002988009073305875,-0.658287525177002,-0.000263144844211638],"translation":[24.423072814941406,-0.039936065673828125,-4.45879602432251]},{"children":[27],"name":"bip R UpperArm_019","rotation":[-0.14746378362178802,-0.058329883962869644,0.02677100896835327,0.986983060836792],"translation":[13.368806838989258,0.0000019073486328125,0.0000152587890625]},{"children":[28],"name":"bip R Forearm_020","rotation":[-2.043518296298372e-19,-1.722645191467461e-18,-0.11780080944299698,0.9930373430252075],"translation":[23.30410385131836,-9.5367431640625e-7,2.842170943040401e-14]},{"children":[29,32],"name":"bip R Hand_021","rotation":[0.6930474042892456,-0.13571663200855255,0.04158758372068405,0.7067792415618896],"translation":[22.851341247558594,3.552713678800501e-15,-0.0000152587890625]},{"children":[30],"name":"bip R Finger0_00","rotation":[-0.6159675717353821,-0.17461225390434265,0.0009290450834669173,0.7681755423545837],"translation":[3.579143524169922,1.3158416748046875,3.513408660888672]},{"children":[31],"name":"bip R Finger01_022","rotation":[7.4496111501787254e-9,1.2018638861910347e-10,0.016131147742271423,0.9998698830604553],"translation":[4.194068908691406,0.000003814697265625,-0.0000152587890625]},{"name":"bip R Finger0Nub_023","rotation":[1.4901161193847656e-8,-4.5102810375396984e-17,1,3.725290298461914e-9],"scale":[-1,-1,-1],"translation":[4.194061279296875,-0.0000019073486328125,-2.842170943040401e-14]},{"children":[33],"name":"bip R Finger1_024","rotation":[-0.028764499351382256,0.03291546180844307,0.0615440309047699,0.9971466660499573],"translation":[7.971820831298828,-0.25164794921875,-0.4154777526855469]},{"children":[34],"name":"bip R Finger11_025","rotation":[4.1344065948578645e-9,-3.2653109105496014e-9,0.1166481003165245,0.9931733012199402],"translation":[3.640350341796875,0,0.000003814697265625]},{"name":"bip R Finger1Nub_026","rotation":[-3.725290298461914e-9,-3.725290298461914e-9,1,-7.511013043707285e-17],"scale":[-1,-1,-1],"translation":[3.640350341796875,0,-0.000003814697265625]},{"children":[36],"name":"bip L Thigh_027","rotation":[0.0192226804792881,0.9963445663452148,0.07291830331087112,-0.04013904929161072],"translation":[-0.0000152587890625,0.00001800060272216797,10.00976276397705]},{"children":[37],"name":"bip L Calf_028","rotation":[1.524097468476058e-19,1.7280154547993083e-18,-0.08785823732614517,0.9961330890655518],"translation":[38.79994201660156,-4.76837158203125e-7,-0.0000019073486328125]},{"children":[38],"name":"bip L Foot_029","rotation":[0.03968916833400726,-0.03606095537543297,0.06711257249116898,0.9963033199310303],"translation":[40.968536376953125,-9.5367431640625e-7,0.0000019073486328125]},{"children":[39],"name":"bip L Toe0_030","rotation":[3.365644707375992e-10,6.907743821393808e-10,0.7507482171058655,0.6605884432792664],"translation":[13.340713500976562,12.397945404052734,-0.14570903778076172]},{"name":"bip L Toe0Nub_031","rotation":[2.962670386796873e-10,4.4673487131774436e-10,1,-6.136469152726688e-17],"scale":[-1,-1,-1],"translation":[6.146427631378174,-1.1920928955078125e-7,-0.0000019073486328125]},{"children":[41],"name":"bip R Thigh_032","rotation":[0.01922273077070713,0.9963443875312805,-0.07291966676712036,0.0401405431330204],"translation":[0.0000152587890625,-0.000009894371032714844,-10.00976276397705]},{"children":[42],"name":"bip R Calf_033","rotation":[2.7648243968066483e-17,-2.438555949561693e-18,-0.08785823732614517,0.9961329698562622],"translation":[38.799949645996094,8.881784197001252e-16,-3.552713678800501e-15]},{"children":[43],"name":"bip R Foot_034","rotation":[-0.03968917950987816,0.03606104105710983,0.06711257249116898,0.9963033199310303],"translation":[40.96854019165039,8.881784197001252e-16,0.0000019073486328125]},{"children":[44],"name":"bip R Toe0_035","rotation":[-2.8257547413090833e-9,2.119663777833125e-9,0.7507482171058655,0.6605884432792664],"translation":[13.582810401916504,12.397943496704102,0.14570999145507812]},{"name":"bip R Toe0Nub_036","rotation":[4.4673503785119806e-10,-2.962672329687166e-10,-1.374543477390291e-17,1],"translation":[6.146429061889648,-1.1920928955078125e-7,0.0000019073486328125]},{"matrix":[0.000001370906829722962,0.9999999999990603,-3.147389620568582e-55,0,-0.9999999999990603,0.000001370906829722962,1.8111358157653425e-71,0,4.31477792701669e-61,3.147389620565625e-55,1,0,0,2.117582368135751e-22,-93.74420928955078,1],"name":"bip Footsteps"}],"samplers":[{"magFilter":9729,"minFilter":9987,"wrapS":10497,"wrapT":10497}],"scene":0,"scenes":[{"name":"Sketchfab_Scene","nodes":[0]}],"skins":[{"inverseBindMatrices":4,"joints":[5,8,9,10,11,12,13,14,15,16,17,18,19,20,21,22,23,24,25,26,27,28,29,30,31,32,33,34,35,36,37,38,39,40,41,42,43,44],"skeleton":5}],"textures":[{"sampler":0,"source":0}]}